<svg width="14" height="14" viewBox="0 0 14 14" fill="none" xmlns="http://www.w3.org/2000/svg">
<path d="M13.6667 3.82684C13.6672 3.7391 13.6504 3.65213 13.6172 3.5709C13.5841 3.48968 13.5352 3.4158 13.4734 3.35351L10.6467 0.526841C10.5844 0.465053 10.5105 0.416169 10.4293 0.382993C10.3481 0.349817 10.2611 0.333 10.1734 0.333507C10.0856 0.333 9.99867 0.349817 9.91745 0.382993C9.83622 0.416169 9.76235 0.465053 9.70005 0.526841L7.81339 2.41351L0.526718 9.70017C0.464931 9.76247 0.416047 9.83634 0.382871 9.91757C0.349695 9.99879 0.332878 10.0858 0.333385 10.1735V13.0002C0.333385 13.177 0.403623 13.3466 0.528647 13.4716C0.653672 13.5966 0.823241 13.6668 1.00005 13.6668H3.82672C3.92 13.6719 4.01331 13.6573 4.1006 13.624C4.18788 13.5907 4.26719 13.5394 4.33339 13.4735L11.5801 6.18684L13.4734 4.33351C13.5342 4.26889 13.5838 4.19453 13.6201 4.11351C13.6265 4.06037 13.6265 4.00665 13.6201 3.95351C13.6232 3.92247 13.6232 3.89121 13.6201 3.86017L13.6667 3.82684ZM3.55339 12.3335H1.66672V10.4468L8.28672 3.82684L10.1734 5.71351L3.55339 12.3335ZM11.1134 4.77351L9.22672 2.88684L10.1734 1.94684L12.0534 3.82684L11.1134 4.77351Z" fill="#2379FB"/>
</svg>
