<svg width="20" height="21" viewBox="0 0 20 21" fill="none" xmlns="http://www.w3.org/2000/svg">
<path d="M17 0.53418H3C2.20435 0.53418 1.44129 0.85025 0.87868 1.41286C0.316071 1.97547 0 2.73853 0 3.53418V13.5342C0 14.3298 0.316071 15.0929 0.87868 15.6555C1.44129 16.2181 2.20435 16.5342 3 16.5342H14.59L18.29 20.2442C18.3834 20.3369 18.4943 20.4102 18.6161 20.46C18.7379 20.5097 18.8684 20.5349 19 20.5342C19.1312 20.5376 19.2613 20.5102 19.38 20.4542C19.5626 20.3792 19.7189 20.2518 19.8293 20.088C19.9396 19.9243 19.999 19.7316 20 19.5342V3.53418C20 2.73853 19.6839 1.97547 19.1213 1.41286C18.5587 0.85025 17.7956 0.53418 17 0.53418ZM18 17.1242L15.71 14.8242C15.6166 14.7315 15.5057 14.6582 15.3839 14.6084C15.2621 14.5586 15.1316 14.5334 15 14.5342H3C2.73478 14.5342 2.48043 14.4288 2.29289 14.2413C2.10536 14.0538 2 13.7994 2 13.5342V3.53418C2 3.26896 2.10536 3.01461 2.29289 2.82707C2.48043 2.63954 2.73478 2.53418 3 2.53418H17C17.2652 2.53418 17.5196 2.63954 17.7071 2.82707C17.8946 3.01461 18 3.26896 18 3.53418V17.1242Z" fill="#8F8F8F"/>
</svg>
